<?xml version="1.0" encoding="UTF-8" standalone="no"?>
<!DOCTYPE svg PUBLIC "-//W3C//DTD SVG 20010904//EN" "http://www.w3.org/TR/2001/REC-SVG-20010904/DTD/svg10.dtd">
<svg version="1.0" xmlns="http://www.w3.org/2000/svg" width="1086.000000pt" height="1280.000000pt" viewBox="0 0 1086.000000 1280.000000" preserveAspectRatio="xMidYMid meet">
<metadata>
Created by potrace 1.15, written by Peter Selinger 2001-2017
</metadata>
<g transform="translate(0.000000,1280.000000) scale(0.100000,-0.100000)" fill="#ffffff" stroke="none">
<path d="M5280 12789 c-25 -5 -81 -26 -125 -48 -134 -67 -241 -195 -287 -346 -28 -91 -30 -243 -4 -330 44 -147 150 -286 267 -350 l56 -30 -112 -510 c-61 -280 -119 -545 -129 -587 l-17 -78 -1098 0 c-840 0 -1100 -3 -1109 -12 -9 -9 -12 -110 -12 -395 l0 -383 -260 0 c-246 0 -260 -1 -270 -19 -6 -13 -10 -238 -10 -660 0 -628 0 -641 20 -661 18 -18 33 -20 150 -20 l130 0 0 -514 c0 -454 2 -516 16 -530 14 -14 127 -16 1100 -16 l1085 0 -3 -92 -3 -93 -54 -3 c-77 -4 -80 -12 -81 -164 l0 -128 -286 0 -286 0 -40 45 c-84 96 -229 187 -353 224 -484 143 -971 -178 -1023 -674 -8 -71 2 -252 13 -264 3 -2 -7 -12 -23 -21 -18 -12 -108 -154 -284 -453 -274 -463 -278 -472 -247 -541 11 -23 -2 -48 -147 -293 -87 -147 -160 -279 -162 -293 -3 -22 -14 -29 -70 -47 -194 -61 -350 -228 -385 -411 -7 -39 -17 -64 -27 -67 -8 -2 -87 -14 -175 -26 -148 -21 -203 -24 -312 -18 -26 1 -52 -4 -67 -15 -39 -25 -487 -578 -541 -667 -26 -43 -61 -118 -78 -166 -28 -80 -30 -100 -31 -218 0 -154 18 -226 92 -369 54 -101 78 -121 117 -90 13 10 151 174 305 364 155 190 290 349 300 354 24 11 42 -1 182 -116 59 -49 110 -98 113 -109 8 -24 27 1 -313 -414 -273 -332 -295 -365 -259 -392 6 -6 23 -13 37 -17 14 -4 50 -14 80 -23 37 -11 97 -16 185 -16 151 -1 230 18 355 85 133 71 188 125 445 438 133 162 247 305 253 317 18 32 15 91 -7 148 -12 30 -24 101 -30 175 -15 172 -15 180 8 180 11 0 52 11 91 24 142 49 255 147 321 281 59 121 74 244 45 367 -11 50 -11 59 1 70 8 6 86 132 173 279 l159 266 42 7 c23 4 54 15 69 26 16 12 117 172 255 405 l228 386 51 -3 51 -3 2 -1230 c3 -1142 4 -1231 20 -1243 12 -8 63 -12 167 -12 l150 0 -31 -32 c-71 -74 -104 -185 -84 -280 14 -66 73 -160 124 -197 l33 -24 -46 -46 c-130 -131 -134 -324 -11 -452 l47 -49 -41 -44 c-124 -129 -127 -320 -7 -448 l45 -48 -45 -48 c-39 -41 -60 -81 -92 -177 -2 -5 -33 -16 -70 -23 -170 -32 -408 -132 -575 -242 -109 -71 -277 -233 -339 -327 -108 -160 -172 -347 -172 -497 0 -73 13 -82 135 -96 143 -16 1471 -24 2168 -12 567 9 579 10 599 30 21 21 21 21 10 395 -11 336 -24 491 -47 549 -4 9 3 44 16 77 17 48 21 74 16 122 -7 75 -54 175 -102 218 l-35 31 40 36 c21 20 52 61 67 92 24 48 28 70 28 137 0 96 -28 166 -93 234 l-41 44 25 20 c37 28 88 113 104 170 28 104 -10 227 -98 313 l-51 51 40 39 c22 21 54 68 71 103 27 57 30 71 26 140 -4 86 -27 144 -82 204 l-34 37 326 0 326 0 -27 -27 c-14 -16 -38 -54 -52 -85 -56 -122 -23 -268 82 -364 l35 -32 -49 -46 c-27 -25 -63 -71 -79 -103 -25 -49 -29 -69 -29 -138 0 -67 4 -89 27 -135 15 -30 45 -73 67 -94 l40 -40 -45 -48 c-66 -71 -88 -126 -89 -223 0 -96 28 -167 93 -229 l41 -40 -41 -40 c-85 -85 -118 -219 -80 -331 19 -54 19 -65 7 -111 -28 -107 -57 -841 -36 -896 6 -17 20 -28 38 -32 15 -3 418 -10 895 -16 864 -10 1729 -1 1876 20 97 13 106 26 98 131 -21 283 -196 564 -474 763 -159 113 -422 226 -620 267 l-59 12 -23 69 c-17 49 -36 81 -69 116 l-46 48 41 42 c67 66 89 121 89 222 0 101 -27 170 -93 236 l-41 40 41 39 c67 65 92 126 93 220 0 103 -23 163 -88 232 l-50 53 46 41 c130 114 148 305 41 444 l-26 35 90 0 c71 0 94 4 111 18 l21 17 3 1229 2 1229 229 -387 c138 -234 240 -394 256 -406 15 -11 46 -22 69 -26 l42 -7 159 -266 c87 -147 165 -273 173 -279 12 -11 12 -20 1 -70 -29 -123 -14 -246 45 -367 66 -134 179 -232 321 -281 39 -13 80 -24 91 -24 23 0 23 -8 8 -180 -6 -74 -18 -145 -30 -175 -22 -57 -25 -116 -7 -148 6 -12 120 -155 253 -317 257 -313 312 -367 445 -438 125 -67 204 -86 355 -85 88 0 148 5 185 16 30 9 66 19 80 23 14 4 31 11 38 17 35 27 13 60 -260 392 -340 415 -321 390 -313 414 3 11 54 60 113 109 140 115 158 127 182 116 10 -5 145 -164 300 -354 154 -190 292 -354 305 -364 39 -31 63 -11 117 90 74 143 92 215 92 369 -1 118 -3 138 -31 218 -17 48 -52 123 -78 166 -54 89 -502 642 -541 667 -15 11 -41 16 -67 15 -109 -6 -164 -3 -312 18 -88 12 -167 24 -175 26 -10 3 -20 28 -27 67 -35 183 -191 350 -385 411 -56 18 -67 25 -70 47 -2 14 -75 146 -162 293 -145 245 -158 270 -147 293 31 69 27 78 -247 541 -176 299 -266 441 -284 453 -16 9 -26 19 -23 21 11 12 21 193 13 264 -45 436 -436 751 -871 704 -196 -22 -383 -115 -505 -254 l-40 -45 -181 0 -181 0 0 128 c0 87 -4 133 -12 145 -9 11 -31 17 -73 19 l-60 3 -3 93 -3 92 1034 0 c989 0 1035 1 1050 18 15 17 17 68 17 530 l0 512 118 0 c90 0 123 4 140 16 l22 15 0 648 c0 502 -3 651 -12 664 -12 15 -43 17 -278 19 l-265 3 -3 388 c-1 213 -3 388 -5 389 -1 2 -544 5 -1206 8 l-1204 5 -118 570 c-65 314 -119 575 -119 580 0 6 28 24 62 40 97 47 198 152 247 256 46 100 61 164 61 267 0 155 -61 303 -171 413 -127 128 -302 182 -479 148z"/>
</g>
</svg>